<?xml version="1.0" standalone="no"?>
<!DOCTYPE svg PUBLIC "-//W3C//DTD SVG 20010904//EN"
 "http://www.w3.org/TR/2001/REC-SVG-20010904/DTD/svg10.dtd">
<svg version="1.0" xmlns="http://www.w3.org/2000/svg"
 width="115.000000pt" height="129.000000pt" viewBox="0 0 115.000000 129.000000"
 preserveAspectRatio="xMidYMid meet">

<g transform="translate(0.000000,129.000000) scale(0.100000,-0.100000)"
fill="#000000" stroke="none">
<path d="M136 1231 c-16 -11 -38 -34 -50 -53 -21 -32 -21 -42 -21 -535 0 -493
0 -502 21 -530 11 -15 36 -39 55 -51 49 -34 127 -27 170 14 50 47 59 79 59
219 l0 125 183 0 c195 0 256 10 327 53 297 181 274 596 -40 746 l-55 26 -310
3 c-293 2 -312 1 -339 -17z m141 -63 c29 -32 37 -65 22 -99 -12 -30 -54 -59
-84 -59 -54 0 -98 58 -88 114 12 61 108 89 150 44z m545 -6 c74 -37 134 -96
170 -170 30 -60 33 -75 33 -157 0 -78 -4 -97 -28 -147 -37 -76 -104 -143 -175
-176 -55 -26 -65 -27 -254 -30 l-198 -4 0 91 0 91 167 0 c149 0 171 2 211 21
118 57 131 215 25 296 -36 28 -36 28 -220 31 l-183 3 0 55 c0 30 -7 71 -15 90
l-15 35 218 -3 c203 -3 220 -5 264 -26z m-584 -209 l72 -5 0 -113 0 -113 -72
-5 c-40 -2 -83 -7 -95 -12 l-23 -7 0 137 0 137 23 -7 c12 -4 55 -9 95 -12z
m505 -33 c41 -36 52 -78 32 -125 -27 -65 -58 -75 -242 -75 l-163 0 0 115 0
115 170 0 169 0 34 -30z m-466 -284 c22 -19 28 -32 28 -66 0 -100 -132 -126
-171 -34 -12 29 -12 39 0 68 8 19 22 39 33 45 31 18 80 13 110 -13z m-39 -213
l72 -5 0 -49 c0 -48 -1 -50 -22 -42 -28 10 -115 9 -145 -1 -22 -8 -23 -6 -23
54 0 60 1 62 23 55 12 -5 55 -10 95 -12z m39 -167 c22 -19 28 -32 28 -66 0
-100 -132 -126 -171 -34 -12 29 -12 39 0 68 8 19 22 39 33 45 31 18 80 13 110
-13z"/>
</g>
</svg>
