<svg id="svg" version="1.1" xmlns="http://www.w3.org/2000/svg" xmlns:xlink="http://www.w3.org/1999/xlink" width="400" height="418.1818181818182" viewBox="0, 0, 400,418.1818181818182"><g id="svgg"><path id="path0" d="M108.400 33.220 C 105.275 33.606,103.457 34.059,101.594 34.912 C 100.827 35.263,99.269 35.818,98.131 36.144 C 95.735 36.832,94.520 37.415,93.400 38.413 C 92.960 38.805,91.790 39.534,90.800 40.034 C 89.810 40.533,88.100 41.723,87.000 42.679 C 84.054 45.238,84.066 45.226,79.211 50.832 C 78.338 51.839,76.993 53.941,76.221 55.502 C 75.449 57.064,74.650 58.445,74.446 58.572 C 74.013 58.839,73.260 61.269,71.711 67.400 L 70.600 71.800 70.600 207.000 L 70.600 342.200 71.707 346.600 C 73.237 352.676,74.008 355.158,74.453 355.433 C 74.662 355.562,75.383 356.832,76.056 358.255 C 76.728 359.679,77.666 361.269,78.139 361.790 C 79.790 363.605,80.448 364.468,80.848 365.345 C 81.069 365.830,81.770 366.576,82.405 367.004 C 83.041 367.431,83.777 368.184,84.041 368.677 C 84.305 369.170,85.169 370.005,85.961 370.533 C 86.752 371.060,87.861 371.956,88.424 372.524 C 88.987 373.092,90.427 374.045,91.624 374.643 C 92.821 375.240,94.340 376.122,95.000 376.602 C 95.660 377.082,97.280 377.782,98.600 378.157 C 99.920 378.533,101.918 379.197,103.040 379.633 C 108.480 381.749,121.365 381.605,126.260 379.374 C 126.954 379.058,127.718 378.800,127.959 378.800 C 128.953 378.800,133.458 377.046,134.205 376.369 C 134.648 375.967,135.643 375.374,136.415 375.051 C 137.534 374.584,142.192 371.164,143.707 369.697 C 145.760 367.711,148.821 364.308,149.212 363.578 C 149.724 362.621,150.147 362.048,151.227 360.845 C 152.441 359.492,155.936 351.771,156.407 349.400 C 156.669 348.080,157.071 346.190,157.299 345.200 C 157.557 344.078,157.805 330.360,157.957 308.800 L 158.200 274.200 159.939 273.322 L 161.678 272.445 205.739 272.409 C 245.961 272.377,261.631 272.102,263.800 271.390 C 264.240 271.246,264.960 270.965,265.400 270.767 C 266.121 270.443,267.774 270.138,276.400 268.740 C 277.830 268.508,279.900 267.913,281.000 267.418 C 283.062 266.489,285.590 265.648,288.900 264.789 C 289.945 264.518,290.800 264.172,290.800 264.019 C 290.800 263.669,294.213 262.135,295.800 261.772 C 296.460 261.621,297.944 260.882,299.098 260.129 C 300.252 259.376,301.782 258.566,302.498 258.330 C 303.214 258.094,304.430 257.414,305.200 256.818 C 305.970 256.222,307.573 255.247,308.762 254.653 C 309.951 254.058,311.481 253.120,312.162 252.568 C 314.539 250.642,317.015 248.792,319.063 247.413 C 320.197 246.648,321.187 245.876,321.263 245.697 C 321.338 245.517,322.159 244.766,323.087 244.028 C 326.429 241.371,337.642 229.935,339.099 227.699 C 339.484 227.107,340.295 226.148,340.900 225.568 C 341.505 224.988,342.000 224.314,342.000 224.070 C 342.000 223.826,342.810 222.715,343.800 221.600 C 344.790 220.485,345.600 219.379,345.600 219.142 C 345.600 218.904,346.410 217.632,347.400 216.315 C 348.390 214.998,349.200 213.687,349.200 213.401 C 349.200 213.114,349.920 211.922,350.800 210.751 C 351.680 209.580,352.400 208.478,352.400 208.303 C 352.400 207.684,354.540 203.200,354.835 203.200 C 355.001 203.200,355.433 202.255,355.796 201.100 C 356.593 198.568,356.977 197.610,358.239 195.000 C 358.770 193.900,359.672 191.112,360.242 188.804 C 360.813 186.496,361.508 184.156,361.787 183.604 C 363.797 179.628,366.134 154.643,365.248 146.600 C 365.005 144.400,364.520 139.360,364.169 135.400 C 363.513 127.993,362.829 124.045,361.780 121.600 C 361.449 120.830,360.659 118.150,360.024 115.645 C 359.389 113.140,358.708 110.980,358.510 110.845 C 358.133 110.588,356.804 107.322,355.969 104.600 C 355.699 103.720,355.079 102.460,354.590 101.800 C 354.101 101.140,353.318 99.557,352.849 98.282 C 352.381 97.007,351.616 95.567,351.149 95.082 C 350.683 94.597,349.940 93.390,349.500 92.400 C 349.059 91.410,348.085 89.842,347.335 88.916 C 346.586 87.990,345.724 86.640,345.421 85.916 C 345.118 85.192,344.401 84.161,343.829 83.624 C 343.256 83.088,342.337 81.880,341.786 80.940 C 341.235 80.000,340.557 79.089,340.278 78.916 C 339.999 78.742,339.361 78.060,338.860 77.400 C 335.198 72.576,326.536 63.930,321.029 59.600 C 319.769 58.610,317.988 57.149,317.070 56.354 C 316.151 55.558,314.860 54.625,314.200 54.280 C 313.540 53.935,312.516 53.194,311.925 52.633 C 311.333 52.072,310.073 51.308,309.125 50.934 C 308.176 50.561,307.310 50.143,307.200 50.006 C 306.645 49.316,304.053 47.600,303.562 47.597 C 303.253 47.596,301.745 46.786,300.212 45.797 C 298.679 44.809,297.191 44.000,296.907 44.000 C 296.333 44.000,296.054 43.878,292.600 42.120 C 291.280 41.448,288.490 40.411,286.400 39.814 C 284.310 39.218,282.420 38.584,282.200 38.406 C 281.609 37.927,277.884 36.883,275.066 36.405 C 273.710 36.175,270.620 35.555,268.200 35.028 C 265.780 34.500,262.540 33.839,261.000 33.559 C 257.763 32.970,113.016 32.648,108.400 33.220 M124.116 52.176 C 125.372 52.791,126.400 53.424,126.400 53.583 C 126.400 53.742,127.099 54.103,127.953 54.384 C 128.807 54.666,130.270 55.685,131.203 56.648 C 132.137 57.612,133.051 58.400,133.235 58.400 C 133.505 58.400,135.308 60.774,137.300 63.751 C 137.813 64.517,138.508 66.484,139.296 69.400 C 140.794 74.939,140.971 76.312,140.501 78.727 C 139.568 83.514,137.657 89.431,136.863 89.986 C 136.695 90.104,136.032 90.920,135.389 91.800 C 133.792 93.988,129.688 97.918,128.661 98.244 C 128.199 98.391,126.916 99.103,125.810 99.826 C 120.466 103.324,107.955 103.195,102.600 99.587 C 101.720 98.995,100.640 98.396,100.200 98.257 C 99.077 97.903,95.141 94.185,93.363 91.800 C 92.543 90.700,91.721 89.740,91.536 89.667 C 91.351 89.593,91.200 89.260,91.200 88.927 C 91.200 88.593,90.480 86.535,89.600 84.352 C 87.207 78.416,87.294 73.788,89.910 67.975 C 90.350 66.999,90.827 65.648,90.970 64.974 C 91.430 62.815,98.947 54.400,100.416 54.400 C 100.671 54.400,101.919 53.758,103.190 52.974 C 107.350 50.406,119.547 49.941,124.116 52.176 M259.442 51.215 C 263.273 51.523,265.486 51.930,268.045 52.798 C 269.939 53.441,272.729 54.161,274.245 54.398 C 277.066 54.840,279.975 55.759,281.404 56.659 C 281.846 56.938,283.615 57.639,285.335 58.216 C 287.056 58.794,289.093 59.694,289.862 60.216 C 290.631 60.738,291.652 61.275,292.130 61.409 C 293.463 61.782,296.400 63.291,296.400 63.603 C 296.400 63.756,297.525 64.454,298.900 65.156 C 300.275 65.858,302.095 67.055,302.944 67.816 C 303.793 68.577,304.652 69.200,304.853 69.200 C 305.054 69.200,305.979 69.887,306.909 70.727 C 307.839 71.567,309.230 72.684,310.000 73.208 C 312.726 75.065,322.950 85.155,323.830 86.857 C 324.155 87.486,324.570 88.000,324.752 88.000 C 324.935 88.000,326.137 89.440,327.425 91.200 C 328.712 92.960,329.886 94.400,330.034 94.400 C 330.182 94.400,330.542 94.985,330.835 95.700 C 331.127 96.415,331.554 97.205,331.783 97.455 C 333.138 98.935,333.804 99.981,335.083 102.638 C 335.867 104.267,336.640 105.600,336.801 105.600 C 336.961 105.600,337.584 106.948,338.185 108.596 C 338.786 110.243,339.587 111.998,339.964 112.496 C 340.725 113.498,341.712 116.049,342.404 118.800 C 342.653 119.790,343.377 121.950,344.013 123.600 C 344.741 125.487,345.475 128.678,345.993 132.200 C 346.445 135.280,346.993 138.700,347.209 139.800 C 348.315 145.427,348.062 162.746,346.802 167.600 C 346.602 168.370,346.156 171.250,345.811 174.000 C 345.465 176.750,345.027 179.360,344.836 179.800 C 343.017 183.995,342.400 185.587,342.400 186.083 C 342.400 187.289,340.713 191.978,339.972 192.833 C 339.547 193.322,339.199 193.920,339.198 194.161 C 339.196 194.403,338.943 195.083,338.635 195.673 C 338.327 196.263,337.957 197.286,337.812 197.945 C 337.667 198.605,337.284 199.365,336.960 199.633 C 336.636 199.902,335.735 201.389,334.958 202.939 C 334.180 204.488,333.017 206.421,332.372 207.235 C 331.727 208.049,331.200 208.889,331.200 209.101 C 331.200 209.314,330.525 210.278,329.700 211.245 C 328.875 212.211,327.761 213.631,327.225 214.401 C 324.178 218.771,313.522 229.673,309.520 232.512 C 308.969 232.904,307.906 233.775,307.158 234.448 C 306.411 235.120,305.137 236.013,304.326 236.430 C 303.516 236.848,302.346 237.667,301.726 238.250 C 301.107 238.834,299.867 239.641,298.971 240.043 C 298.075 240.445,296.664 241.313,295.836 241.972 C 295.008 242.630,293.941 243.280,293.465 243.416 C 292.037 243.825,290.022 244.809,288.503 245.840 C 287.716 246.374,286.377 246.922,285.527 247.058 C 284.677 247.194,283.886 247.461,283.768 247.653 C 283.649 247.844,283.247 248.000,282.873 248.000 C 282.499 248.000,281.385 248.430,280.397 248.956 C 278.682 249.869,276.567 250.490,270.800 251.771 C 269.370 252.089,267.120 252.612,265.800 252.934 C 258.957 254.603,260.360 254.558,210.082 254.701 L 161.565 254.838 159.782 253.948 L 158.000 253.058 158.000 229.201 L 158.000 205.344 158.900 204.572 C 160.949 202.814,159.900 202.853,206.463 202.806 C 248.426 202.763,251.173 202.718,254.000 202.018 C 262.806 199.837,264.719 199.235,266.400 198.110 C 267.390 197.448,268.883 196.686,269.719 196.416 C 270.554 196.146,272.050 195.222,273.043 194.363 C 274.036 193.503,274.985 192.800,275.151 192.800 C 276.195 192.800,286.585 181.673,287.440 179.639 C 287.688 179.051,288.430 177.978,289.091 177.255 C 289.751 176.532,290.507 175.189,290.771 174.270 C 291.281 172.493,292.001 170.751,293.249 168.269 C 295.917 162.967,296.036 142.059,293.427 137.253 C 292.403 135.368,291.551 133.435,290.935 131.600 C 290.602 130.610,289.808 129.138,289.170 128.330 C 288.532 127.521,287.784 126.351,287.508 125.730 C 287.232 125.108,286.670 124.240,286.259 123.800 C 285.848 123.360,284.834 122.100,284.005 121.000 C 282.217 118.626,276.969 113.751,274.298 111.982 C 273.254 111.290,272.400 110.594,272.400 110.434 C 272.400 110.274,271.455 109.728,270.300 109.222 C 269.145 108.715,267.521 107.846,266.690 107.289 C 265.293 106.353,263.463 105.716,259.400 104.751 C 258.520 104.542,256.720 103.973,255.400 103.486 L 253.000 102.600 207.290 102.489 L 161.581 102.377 159.890 101.428 L 158.200 100.479 157.937 85.340 C 157.787 76.698,157.486 69.427,157.236 68.400 C 156.994 67.410,156.619 65.600,156.402 64.377 C 156.172 63.084,155.004 60.174,153.607 57.414 C 151.075 52.412,151.031 51.973,152.986 51.181 C 154.208 50.685,253.251 50.717,259.442 51.215 M91.576 113.791 C 92.498 114.117,93.714 114.746,94.278 115.190 C 94.843 115.634,96.046 116.188,96.952 116.422 C 98.716 116.877,100.745 117.687,102.460 118.621 C 104.246 119.593,110.414 119.986,124.025 119.993 C 138.840 120.001,140.021 120.204,140.547 122.834 C 140.964 124.919,140.843 182.235,140.419 183.350 C 139.792 184.998,138.058 185.195,124.170 185.198 C 109.911 185.200,104.679 185.700,100.922 187.419 C 99.742 187.958,98.522 188.400,98.212 188.400 C 97.901 188.400,97.550 188.557,97.432 188.748 C 97.314 188.940,96.698 189.200,96.064 189.327 C 95.430 189.454,94.392 189.994,93.756 190.528 C 92.361 191.699,89.441 192.298,88.586 191.589 C 87.781 190.920,87.693 115.281,88.496 113.995 C 89.090 113.043,89.398 113.023,91.576 113.791 M252.983 120.746 C 254.293 121.016,255.913 121.570,256.583 121.976 C 257.252 122.382,258.790 123.127,260.000 123.631 C 261.210 124.135,262.757 125.009,263.437 125.574 C 264.117 126.138,265.103 126.870,265.627 127.200 C 267.352 128.285,271.590 132.958,272.882 135.200 C 273.580 136.410,274.476 137.850,274.874 138.400 C 278.239 143.047,278.326 162.952,274.998 166.800 C 274.713 167.130,273.983 168.300,273.375 169.400 C 271.069 173.577,262.830 181.178,259.917 181.818 C 259.304 181.953,257.497 182.724,255.901 183.531 L 253.000 185.000 206.511 185.000 L 160.022 185.000 159.111 184.089 L 158.200 183.178 158.080 154.089 C 157.945 121.362,157.914 121.977,159.721 120.854 C 161.299 119.873,248.254 119.773,252.983 120.746 M119.200 203.400 C 122.209 203.675,124.876 204.564,126.638 205.877 C 127.319 206.385,128.057 206.800,128.278 206.800 C 129.044 206.800,134.204 211.675,135.301 213.434 C 135.906 214.405,136.559 215.200,136.752 215.200 C 136.945 215.200,137.323 215.785,137.592 216.500 C 137.861 217.215,138.234 218.160,138.421 218.600 C 138.839 219.583,139.892 223.508,140.461 226.200 C 140.900 228.283,140.655 232.595,140.052 233.359 C 139.861 233.602,139.487 234.790,139.222 236.000 C 137.569 243.523,132.868 248.740,123.720 253.201 C 118.878 255.562,106.821 255.183,103.600 252.569 C 103.270 252.301,102.169 251.695,101.153 251.222 C 97.514 249.528,92.119 243.404,90.508 239.140 C 87.985 232.462,88.000 232.526,88.000 228.385 C 88.000 224.752,88.117 224.103,89.173 221.875 C 89.817 220.514,90.563 218.646,90.828 217.725 C 91.731 214.597,97.692 208.182,101.142 206.626 C 102.054 206.215,102.800 205.747,102.800 205.586 C 102.800 204.467,111.755 202.655,115.400 203.036 C 116.060 203.105,117.770 203.269,119.200 203.400 M92.030 266.211 C 92.981 266.546,94.073 267.157,94.455 267.567 C 94.838 267.978,96.735 268.807,98.672 269.411 C 100.609 270.015,102.559 270.748,103.004 271.040 C 104.446 271.984,110.728 272.393,123.800 272.395 C 137.717 272.396,140.171 272.715,140.625 274.584 C 140.734 275.033,140.773 280.980,140.712 287.800 L 140.600 300.200 138.594 300.318 C 137.059 300.408,136.396 300.256,135.767 299.669 C 135.314 299.248,133.787 298.495,132.372 297.996 C 130.957 297.497,128.990 296.676,128.000 296.171 C 121.634 292.923,105.134 293.720,97.905 297.625 C 97.523 297.831,96.964 298.000,96.662 298.000 C 96.360 298.000,95.142 298.508,93.956 299.129 C 87.588 302.465,88.028 303.624,88.013 283.495 C 87.998 264.137,87.858 264.739,92.030 266.211 M123.971 313.171 C 125.165 313.617,126.245 314.146,126.371 314.346 C 126.497 314.546,127.470 315.194,128.534 315.786 C 130.433 316.844,135.200 321.315,135.200 322.039 C 135.200 322.241,135.730 322.962,136.378 323.640 C 137.123 324.420,137.867 325.925,138.403 327.736 C 138.869 329.311,139.554 331.410,139.925 332.400 C 140.712 334.500,140.869 341.140,140.152 342.039 C 139.906 342.347,139.489 343.590,139.226 344.800 C 138.575 347.789,137.655 349.929,136.304 351.600 C 135.682 352.370,134.998 353.217,134.786 353.483 C 134.574 353.749,134.400 354.134,134.400 354.338 C 134.400 354.543,133.833 355.135,133.140 355.655 C 132.447 356.175,131.322 357.167,130.640 357.860 C 129.958 358.553,127.420 360.082,125.000 361.259 L 120.600 363.399 114.200 363.392 L 107.800 363.384 105.000 361.912 C 103.460 361.101,101.570 360.159,100.800 359.818 C 99.179 359.099,94.821 354.997,92.834 352.320 C 91.572 350.621,90.878 349.065,88.779 343.237 C 87.351 339.272,87.985 331.818,89.991 329.000 C 90.148 328.780,90.502 327.765,90.777 326.745 C 91.557 323.860,96.805 317.761,100.210 315.783 C 101.305 315.147,102.419 314.414,102.687 314.155 C 104.933 311.979,119.043 311.326,123.971 313.171 " stroke="none" fill="#1a1a1a" fill-rule="evenodd"></path><path id="path1" d="M0.000 209.000 L 0.000 418.000 200.000 418.000 L 400.000 418.000 400.000 209.000 L 400.000 0.000 200.000 0.000 L 0.000 0.000 0.000 209.000 M261.000 33.559 C 262.540 33.839,265.780 34.500,268.200 35.028 C 270.620 35.555,273.710 36.175,275.066 36.405 C 277.884 36.883,281.609 37.927,282.200 38.406 C 282.420 38.584,284.310 39.218,286.400 39.814 C 288.490 40.411,291.280 41.448,292.600 42.120 C 296.054 43.878,296.333 44.000,296.907 44.000 C 297.191 44.000,298.679 44.809,300.212 45.797 C 301.745 46.786,303.253 47.596,303.562 47.597 C 304.053 47.600,306.645 49.316,307.200 50.006 C 307.310 50.143,308.176 50.561,309.125 50.934 C 310.073 51.308,311.333 52.072,311.925 52.633 C 312.516 53.194,313.540 53.935,314.200 54.280 C 314.860 54.625,316.151 55.558,317.070 56.354 C 317.988 57.149,319.769 58.610,321.029 59.600 C 326.536 63.930,335.198 72.576,338.860 77.400 C 339.361 78.060,339.999 78.742,340.278 78.916 C 340.557 79.089,341.235 80.000,341.786 80.940 C 342.337 81.880,343.256 83.088,343.829 83.624 C 344.401 84.161,345.118 85.192,345.421 85.916 C 345.724 86.640,346.586 87.990,347.335 88.916 C 348.085 89.842,349.059 91.410,349.500 92.400 C 349.940 93.390,350.683 94.597,351.149 95.082 C 351.616 95.567,352.381 97.007,352.849 98.282 C 353.318 99.557,354.101 101.140,354.590 101.800 C 355.079 102.460,355.699 103.720,355.969 104.600 C 356.804 107.322,358.133 110.588,358.510 110.845 C 358.708 110.980,359.389 113.140,360.024 115.645 C 360.659 118.150,361.449 120.830,361.780 121.600 C 362.829 124.045,363.513 127.993,364.169 135.400 C 364.520 139.360,365.005 144.400,365.248 146.600 C 366.134 154.643,363.797 179.628,361.787 183.604 C 361.508 184.156,360.813 186.496,360.242 188.804 C 359.672 191.112,358.770 193.900,358.239 195.000 C 356.977 197.610,356.593 198.568,355.796 201.100 C 355.433 202.255,355.001 203.200,354.835 203.200 C 354.540 203.200,352.400 207.684,352.400 208.303 C 352.400 208.478,351.680 209.580,350.800 210.751 C 349.920 211.922,349.200 213.114,349.200 213.401 C 349.200 213.687,348.390 214.998,347.400 216.315 C 346.410 217.632,345.600 218.904,345.600 219.142 C 345.600 219.379,344.790 220.485,343.800 221.600 C 342.810 222.715,342.000 223.826,342.000 224.070 C 342.000 224.314,341.505 224.988,340.900 225.568 C 340.295 226.148,339.484 227.107,339.099 227.699 C 337.642 229.935,326.429 241.371,323.087 244.028 C 322.159 244.766,321.338 245.517,321.263 245.697 C 321.187 245.876,320.197 246.648,319.063 247.413 C 317.015 248.792,314.539 250.642,312.162 252.568 C 311.481 253.120,309.951 254.058,308.762 254.653 C 307.573 255.247,305.970 256.222,305.200 256.818 C 304.430 257.414,303.214 258.094,302.498 258.330 C 301.782 258.566,300.252 259.376,299.098 260.129 C 297.944 260.882,296.460 261.621,295.800 261.772 C 294.213 262.135,290.800 263.669,290.800 264.019 C 290.800 264.172,289.945 264.518,288.900 264.789 C 285.590 265.648,283.062 266.489,281.000 267.418 C 279.900 267.913,277.830 268.508,276.400 268.740 C 267.774 270.138,266.121 270.443,265.400 270.767 C 264.960 270.965,264.240 271.246,263.800 271.390 C 261.631 272.102,245.961 272.377,205.739 272.409 L 161.678 272.445 159.939 273.322 L 158.200 274.200 157.957 308.800 C 157.805 330.360,157.557 344.078,157.299 345.200 C 157.071 346.190,156.669 348.080,156.407 349.400 C 155.936 351.771,152.441 359.492,151.227 360.845 C 150.147 362.048,149.724 362.621,149.212 363.578 C 148.821 364.308,145.760 367.711,143.707 369.697 C 142.192 371.164,137.534 374.584,136.415 375.051 C 135.643 375.374,134.648 375.967,134.205 376.369 C 133.458 377.046,128.953 378.800,127.959 378.800 C 127.718 378.800,126.954 379.058,126.260 379.374 C 121.365 381.605,108.480 381.749,103.040 379.633 C 101.918 379.197,99.920 378.533,98.600 378.157 C 97.280 377.782,95.660 377.082,95.000 376.602 C 94.340 376.122,92.821 375.240,91.624 374.643 C 90.427 374.045,88.987 373.092,88.424 372.524 C 87.861 371.956,86.752 371.060,85.961 370.533 C 85.169 370.005,84.305 369.170,84.041 368.677 C 83.777 368.184,83.041 367.431,82.405 367.004 C 81.770 366.576,81.069 365.830,80.848 365.345 C 80.448 364.468,79.790 363.605,78.139 361.790 C 77.666 361.269,76.728 359.679,76.056 358.255 C 75.383 356.832,74.662 355.562,74.453 355.433 C 74.008 355.158,73.237 352.676,71.707 346.600 L 70.600 342.200 70.600 207.000 L 70.600 71.800 71.711 67.400 C 73.260 61.269,74.013 58.839,74.446 58.572 C 74.650 58.445,75.449 57.064,76.221 55.502 C 76.993 53.941,78.338 51.839,79.211 50.832 C 84.066 45.226,84.054 45.238,87.000 42.679 C 88.100 41.723,89.810 40.533,90.800 40.034 C 91.790 39.534,92.960 38.805,93.400 38.413 C 94.520 37.415,95.735 36.832,98.131 36.144 C 99.269 35.818,100.827 35.263,101.594 34.912 C 103.457 34.059,105.275 33.606,108.400 33.220 C 113.016 32.648,257.763 32.970,261.000 33.559 M107.450 51.196 C 106.378 51.390,104.460 52.190,103.190 52.974 C 101.919 53.758,100.671 54.400,100.416 54.400 C 98.947 54.400,91.430 62.815,90.970 64.974 C 90.827 65.648,90.350 66.999,89.910 67.975 C 87.294 73.788,87.207 78.416,89.600 84.352 C 90.480 86.535,91.200 88.593,91.200 88.927 C 91.200 89.260,91.351 89.593,91.536 89.667 C 91.721 89.740,92.543 90.700,93.363 91.800 C 95.141 94.185,99.077 97.903,100.200 98.257 C 100.640 98.396,101.720 98.995,102.600 99.587 C 107.955 103.195,120.466 103.324,125.810 99.826 C 126.916 99.103,128.199 98.391,128.661 98.244 C 129.688 97.918,133.792 93.988,135.389 91.800 C 136.032 90.920,136.695 90.104,136.863 89.986 C 137.657 89.431,139.568 83.514,140.501 78.727 C 140.971 76.312,140.794 74.939,139.296 69.400 C 138.508 66.484,137.813 64.517,137.300 63.751 C 135.308 60.774,133.505 58.400,133.235 58.400 C 133.051 58.400,132.137 57.612,131.203 56.648 C 130.270 55.685,128.807 54.666,127.953 54.384 C 127.099 54.103,126.400 53.742,126.400 53.583 C 126.400 51.621,113.849 50.040,107.450 51.196 M152.986 51.181 C 151.031 51.973,151.075 52.412,153.607 57.414 C 155.004 60.174,156.172 63.084,156.402 64.377 C 156.619 65.600,156.994 67.410,157.236 68.400 C 157.486 69.427,157.787 76.698,157.937 85.340 L 158.200 100.479 159.890 101.428 L 161.581 102.377 207.290 102.489 L 253.000 102.600 255.400 103.486 C 256.720 103.973,258.520 104.542,259.400 104.751 C 263.463 105.716,265.293 106.353,266.690 107.289 C 267.521 107.846,269.145 108.715,270.300 109.222 C 271.455 109.728,272.400 110.274,272.400 110.434 C 272.400 110.594,273.254 111.290,274.298 111.982 C 276.969 113.751,282.217 118.626,284.005 121.000 C 284.834 122.100,285.848 123.360,286.259 123.800 C 286.670 124.240,287.232 125.108,287.508 125.730 C 287.784 126.351,288.532 127.521,289.170 128.330 C 289.808 129.138,290.602 130.610,290.935 131.600 C 291.551 133.435,292.403 135.368,293.427 137.253 C 296.036 142.059,295.917 162.967,293.249 168.269 C 292.001 170.751,291.281 172.493,290.771 174.270 C 290.507 175.189,289.751 176.532,289.091 177.255 C 288.430 177.978,287.688 179.051,287.440 179.639 C 286.585 181.673,276.195 192.800,275.151 192.800 C 274.985 192.800,274.036 193.503,273.043 194.363 C 272.050 195.222,270.554 196.146,269.719 196.416 C 268.883 196.686,267.390 197.448,266.400 198.110 C 264.719 199.235,262.806 199.837,254.000 202.018 C 251.173 202.718,248.426 202.763,206.463 202.806 C 159.900 202.853,160.949 202.814,158.900 204.572 L 158.000 205.344 158.000 229.201 L 158.000 253.058 159.782 253.948 L 161.565 254.838 210.082 254.701 C 260.360 254.558,258.957 254.603,265.800 252.934 C 267.120 252.612,269.370 252.089,270.800 251.771 C 276.567 250.490,278.682 249.869,280.397 248.956 C 281.385 248.430,282.499 248.000,282.873 248.000 C 283.247 248.000,283.649 247.844,283.768 247.653 C 283.886 247.461,284.677 247.194,285.527 247.058 C 286.377 246.922,287.716 246.374,288.503 245.840 C 290.022 244.809,292.037 243.825,293.465 243.416 C 293.941 243.280,295.008 242.630,295.836 241.972 C 296.664 241.313,298.075 240.445,298.971 240.043 C 299.867 239.641,301.107 238.834,301.726 238.250 C 302.346 237.667,303.516 236.848,304.326 236.430 C 305.137 236.013,306.411 235.120,307.158 234.448 C 307.906 233.775,308.969 232.904,309.520 232.512 C 313.522 229.673,324.178 218.771,327.225 214.401 C 327.761 213.631,328.875 212.211,329.700 211.245 C 330.525 210.278,331.200 209.314,331.200 209.101 C 331.200 208.889,331.727 208.049,332.372 207.235 C 333.017 206.421,334.180 204.488,334.958 202.939 C 335.735 201.389,336.636 199.902,336.960 199.633 C 337.284 199.365,337.667 198.605,337.812 197.945 C 337.957 197.286,338.327 196.263,338.635 195.673 C 338.943 195.083,339.196 194.403,339.198 194.161 C 339.199 193.920,339.547 193.322,339.972 192.833 C 340.713 191.978,342.400 187.289,342.400 186.083 C 342.400 185.587,343.017 183.995,344.836 179.800 C 345.027 179.360,345.465 176.750,345.811 174.000 C 346.156 171.250,346.602 168.370,346.802 167.600 C 348.062 162.746,348.315 145.427,347.209 139.800 C 346.993 138.700,346.445 135.280,345.993 132.200 C 345.475 128.678,344.741 125.487,344.013 123.600 C 343.377 121.950,342.653 119.790,342.404 118.800 C 341.712 116.049,340.725 113.498,339.964 112.496 C 339.587 111.998,338.786 110.243,338.185 108.596 C 337.584 106.948,336.961 105.600,336.801 105.600 C 336.640 105.600,335.867 104.267,335.083 102.638 C 333.804 99.981,333.138 98.935,331.783 97.455 C 331.554 97.205,331.127 96.415,330.835 95.700 C 330.542 94.985,330.182 94.400,330.034 94.400 C 329.886 94.400,328.712 92.960,327.425 91.200 C 326.137 89.440,324.935 88.000,324.752 88.000 C 324.570 88.000,324.155 87.486,323.830 86.857 C 322.950 85.155,312.726 75.065,310.000 73.208 C 309.230 72.684,307.839 71.567,306.909 70.727 C 305.979 69.887,305.054 69.200,304.853 69.200 C 304.652 69.200,303.793 68.577,302.944 67.816 C 302.095 67.055,300.275 65.858,298.900 65.156 C 297.525 64.454,296.400 63.756,296.400 63.603 C 296.400 63.291,293.463 61.782,292.130 61.409 C 291.652 61.275,290.631 60.738,289.862 60.216 C 289.093 59.694,287.056 58.794,285.335 58.216 C 283.615 57.639,281.846 56.938,281.404 56.659 C 279.975 55.759,277.066 54.840,274.245 54.398 C 272.729 54.161,269.939 53.441,268.045 52.798 C 265.486 51.930,263.273 51.523,259.442 51.215 C 253.251 50.717,154.208 50.685,152.986 51.181 M88.496 113.995 C 87.693 115.281,87.781 190.920,88.586 191.589 C 89.441 192.298,92.361 191.699,93.756 190.528 C 94.392 189.994,95.430 189.454,96.064 189.327 C 96.698 189.200,97.314 188.940,97.432 188.748 C 97.550 188.557,97.901 188.400,98.212 188.400 C 98.522 188.400,99.742 187.958,100.922 187.419 C 104.679 185.700,109.911 185.200,124.170 185.198 C 138.058 185.195,139.792 184.998,140.419 183.350 C 140.843 182.235,140.964 124.919,140.547 122.834 C 140.021 120.204,138.840 120.001,124.025 119.993 C 110.414 119.986,104.246 119.593,102.460 118.621 C 100.745 117.687,98.716 116.877,96.952 116.422 C 96.046 116.188,94.843 115.634,94.278 115.190 C 93.279 114.404,90.356 113.200,89.446 113.200 C 89.197 113.200,88.769 113.558,88.496 113.995 M159.721 120.854 C 157.914 121.977,157.945 121.362,158.080 154.089 L 158.200 183.178 159.111 184.089 L 160.022 185.000 206.511 185.000 L 253.000 185.000 255.901 183.531 C 257.497 182.724,259.304 181.953,259.917 181.818 C 262.830 181.178,271.069 173.577,273.375 169.400 C 273.983 168.300,274.713 167.130,274.998 166.800 C 278.326 162.952,278.239 143.047,274.874 138.400 C 274.476 137.850,273.580 136.410,272.882 135.200 C 271.590 132.958,267.352 128.285,265.627 127.200 C 265.103 126.870,264.117 126.138,263.437 125.574 C 262.757 125.009,261.210 124.135,260.000 123.631 C 258.790 123.127,257.252 122.382,256.583 121.976 C 253.832 120.306,252.539 120.260,205.800 120.157 C 161.694 120.060,160.980 120.071,159.721 120.854 M110.600 203.252 C 107.266 203.569,102.800 204.905,102.800 205.586 C 102.800 205.747,102.054 206.215,101.142 206.626 C 97.692 208.182,91.731 214.597,90.828 217.725 C 90.563 218.646,89.817 220.514,89.173 221.875 C 88.117 224.103,88.000 224.752,88.000 228.385 C 88.000 232.526,87.985 232.462,90.508 239.140 C 92.119 243.404,97.514 249.528,101.153 251.222 C 102.169 251.695,103.270 252.301,103.600 252.569 C 106.821 255.183,118.878 255.562,123.720 253.201 C 132.868 248.740,137.569 243.523,139.222 236.000 C 139.487 234.790,139.861 233.602,140.052 233.359 C 140.655 232.595,140.900 228.283,140.461 226.200 C 139.892 223.508,138.839 219.583,138.421 218.600 C 138.234 218.160,137.861 217.215,137.592 216.500 C 137.323 215.785,136.945 215.200,136.752 215.200 C 136.559 215.200,135.906 214.405,135.301 213.434 C 134.204 211.675,129.044 206.800,128.278 206.800 C 128.057 206.800,127.319 206.385,126.638 205.877 C 124.876 204.564,122.209 203.675,119.200 203.400 C 117.770 203.269,116.060 203.105,115.400 203.036 C 114.740 202.967,112.580 203.064,110.600 203.252 M88.496 266.395 C 87.718 267.641,87.812 299.518,88.597 300.555 C 89.248 301.415,89.947 301.229,93.956 299.129 C 95.142 298.508,96.360 298.000,96.662 298.000 C 96.964 298.000,97.523 297.831,97.905 297.625 C 105.134 293.720,121.634 292.923,128.000 296.171 C 128.990 296.676,130.957 297.497,132.372 297.996 C 133.787 298.495,135.314 299.248,135.767 299.669 C 136.396 300.256,137.059 300.408,138.594 300.318 L 140.600 300.200 140.712 287.800 C 140.773 280.980,140.734 275.033,140.625 274.584 C 140.171 272.715,137.717 272.396,123.800 272.395 C 110.728 272.393,104.446 271.984,103.004 271.040 C 102.559 270.748,100.609 270.015,98.672 269.411 C 96.735 268.807,94.838 267.978,94.455 267.567 C 92.890 265.887,89.259 265.173,88.496 266.395 M108.600 312.239 C 106.672 312.522,103.217 313.642,102.687 314.155 C 102.419 314.414,101.305 315.147,100.210 315.783 C 96.805 317.761,91.557 323.860,90.777 326.745 C 90.502 327.765,90.148 328.780,89.991 329.000 C 87.985 331.818,87.351 339.272,88.779 343.237 C 90.878 349.065,91.572 350.621,92.834 352.320 C 94.821 354.997,99.179 359.099,100.800 359.818 C 101.570 360.159,103.460 361.101,105.000 361.912 L 107.800 363.384 114.200 363.392 L 120.600 363.399 125.000 361.259 C 127.420 360.082,129.958 358.553,130.640 357.860 C 131.322 357.167,132.447 356.175,133.140 355.655 C 133.833 355.135,134.400 354.543,134.400 354.338 C 134.400 354.134,134.574 353.749,134.786 353.483 C 134.998 353.217,135.682 352.370,136.304 351.600 C 137.655 349.929,138.575 347.789,139.226 344.800 C 139.489 343.590,139.906 342.347,140.152 342.039 C 140.869 341.140,140.712 334.500,139.925 332.400 C 139.554 331.410,138.869 329.311,138.403 327.736 C 137.867 325.925,137.123 324.420,136.378 323.640 C 135.730 322.962,135.200 322.241,135.200 322.039 C 135.200 321.315,130.433 316.844,128.534 315.786 C 127.470 315.194,126.497 314.546,126.371 314.346 C 125.407 312.816,113.936 311.456,108.600 312.239 " stroke="none" fill="#fbfbfb" fill-rule="evenodd"></path></g></svg>